<mxfile host="app.diagrams.net" modified="2022-08-25T07:07:02.373Z" agent="5.0 (Windows NT 10.0; Win64; x64) AppleWebKit/537.36 (KHTML, like Gecko) Chrome/104.0.5112.102 Safari/537.36 Edg/104.0.1293.63" etag="q_bPL2ieZZhE8vOKDKyQ" version="20.2.2" type="github">
  <diagram id="R2lEEEUBdFMjLlhIrx00" name="Page-1">
    <mxGraphModel dx="2272" dy="1894" grid="1" gridSize="10" guides="1" tooltips="1" connect="1" arrows="1" fold="1" page="1" pageScale="1" pageWidth="850" pageHeight="1100" math="0" shadow="0" extFonts="Permanent Marker^https://fonts.googleapis.com/css?family=Permanent+Marker">
      <root>
        <mxCell id="0" />
        <mxCell id="1" parent="0" />
        <mxCell id="92t1Hm8fsz9WDFqAWncr-5" value="城市" style="swimlane;childLayout=stackLayout;horizontal=1;startSize=30;horizontalStack=0;rounded=1;fontSize=14;fontStyle=0;strokeWidth=2;resizeParent=0;resizeLast=1;shadow=0;dashed=0;align=center;swimlaneFillColor=none;fillColor=#0883FF;fontColor=#FFFFFF;" vertex="1" parent="1">
          <mxGeometry x="30" y="-770" width="220" height="150" as="geometry" />
        </mxCell>
        <mxCell id="92t1Hm8fsz9WDFqAWncr-6" value="城市名称&#xa;车牌代号&#xa;区域代码&#xa;城市代码&#xa;拼音全拼&#xa;政府名称&#xa;城市类型" style="align=left;strokeColor=none;fillColor=none;spacingLeft=4;fontSize=12;verticalAlign=top;resizable=0;rotatable=0;part=1;" vertex="1" parent="92t1Hm8fsz9WDFqAWncr-5">
          <mxGeometry y="30" width="220" height="120" as="geometry" />
        </mxCell>
        <mxCell id="92t1Hm8fsz9WDFqAWncr-43" style="edgeStyle=none;rounded=0;orthogonalLoop=1;jettySize=auto;html=1;exitX=1;exitY=1;exitDx=0;exitDy=0;fontColor=#030303;startArrow=ERmany;startFill=0;endArrow=ERone;endFill=0;" edge="1" parent="92t1Hm8fsz9WDFqAWncr-5" source="92t1Hm8fsz9WDFqAWncr-6" target="92t1Hm8fsz9WDFqAWncr-6">
          <mxGeometry relative="1" as="geometry" />
        </mxCell>
        <mxCell id="92t1Hm8fsz9WDFqAWncr-8" value="省份" style="swimlane;childLayout=stackLayout;horizontal=1;startSize=30;horizontalStack=0;rounded=1;fontSize=14;fontStyle=0;strokeWidth=2;resizeParent=0;resizeLast=1;shadow=0;dashed=0;align=center;swimlaneFillColor=none;fillColor=#0883FF;fontColor=#FFFFFF;" vertex="1" parent="1">
          <mxGeometry x="30" y="-1050" width="220" height="170" as="geometry" />
        </mxCell>
        <mxCell id="92t1Hm8fsz9WDFqAWncr-9" value="省份名称&#xa;省份代码&#xa;省份简称&#xa;地域面积&#xa;省会城市" style="align=left;strokeColor=none;fillColor=none;spacingLeft=4;fontSize=12;verticalAlign=top;resizable=0;rotatable=0;part=1;" vertex="1" parent="92t1Hm8fsz9WDFqAWncr-8">
          <mxGeometry y="30" width="220" height="140" as="geometry" />
        </mxCell>
        <mxCell id="92t1Hm8fsz9WDFqAWncr-11" style="edgeStyle=orthogonalEdgeStyle;rounded=0;orthogonalLoop=1;jettySize=auto;html=1;exitX=0.5;exitY=0;exitDx=0;exitDy=0;entryX=0.5;entryY=1;entryDx=0;entryDy=0;fontColor=#FFFFFF;startArrow=ERmany;startFill=0;endArrow=ERone;endFill=0;" edge="1" parent="1" source="92t1Hm8fsz9WDFqAWncr-5" target="92t1Hm8fsz9WDFqAWncr-9">
          <mxGeometry relative="1" as="geometry" />
        </mxCell>
        <mxCell id="92t1Hm8fsz9WDFqAWncr-14" value="国家" style="swimlane;childLayout=stackLayout;horizontal=1;startSize=30;horizontalStack=0;rounded=1;fontSize=14;fontStyle=0;strokeWidth=2;resizeParent=0;resizeLast=1;shadow=0;dashed=0;align=center;swimlaneFillColor=none;fillColor=#0883FF;fontColor=#FFFFFF;" vertex="1" parent="1">
          <mxGeometry x="340" y="-1050" width="220" height="170" as="geometry" />
        </mxCell>
        <mxCell id="92t1Hm8fsz9WDFqAWncr-15" value="国家代码&#xa;国家名称&#xa;国家面积&#xa;区域号码" style="align=left;strokeColor=none;fillColor=none;spacingLeft=4;fontSize=12;verticalAlign=top;resizable=0;rotatable=0;part=1;" vertex="1" parent="92t1Hm8fsz9WDFqAWncr-14">
          <mxGeometry y="30" width="220" height="140" as="geometry" />
        </mxCell>
        <mxCell id="92t1Hm8fsz9WDFqAWncr-16" style="edgeStyle=orthogonalEdgeStyle;rounded=0;orthogonalLoop=1;jettySize=auto;html=1;exitX=1;exitY=0.25;exitDx=0;exitDy=0;entryX=0;entryY=0.25;entryDx=0;entryDy=0;fontColor=#FFFFFF;startArrow=ERmany;startFill=0;endArrow=ERone;endFill=0;" edge="1" parent="1" source="92t1Hm8fsz9WDFqAWncr-9" target="92t1Hm8fsz9WDFqAWncr-15">
          <mxGeometry relative="1" as="geometry">
            <mxPoint x="260" y="-695" as="sourcePoint" />
            <mxPoint x="440" y="-695" as="targetPoint" />
          </mxGeometry>
        </mxCell>
        <mxCell id="92t1Hm8fsz9WDFqAWncr-20" value="政策" style="swimlane;childLayout=stackLayout;horizontal=1;startSize=30;horizontalStack=0;rounded=1;fontSize=14;fontStyle=0;strokeWidth=2;resizeParent=0;resizeLast=1;shadow=0;dashed=0;align=center;fontColor=#FFFFFF;fillColor=#0883FF;" vertex="1" parent="1">
          <mxGeometry x="30" y="-530" width="220" height="150" as="geometry" />
        </mxCell>
        <mxCell id="92t1Hm8fsz9WDFqAWncr-22" value="政策名称&#xa;政策等级&#xa;发布年份" style="align=left;strokeColor=none;fillColor=none;spacingLeft=4;fontSize=12;verticalAlign=top;resizable=0;rotatable=0;part=1;fontColor=#030303;" vertex="1" parent="92t1Hm8fsz9WDFqAWncr-20">
          <mxGeometry y="30" width="220" height="120" as="geometry" />
        </mxCell>
        <mxCell id="92t1Hm8fsz9WDFqAWncr-27" value="行业统计" style="swimlane;childLayout=stackLayout;horizontal=1;startSize=30;horizontalStack=0;rounded=1;fontSize=14;fontStyle=0;strokeWidth=2;resizeParent=0;resizeLast=1;shadow=0;dashed=0;align=center;fontColor=#FFFFFF;fillColor=#0883FF;" vertex="1" parent="1">
          <mxGeometry x="-590" y="-770" width="220" height="150" as="geometry" />
        </mxCell>
        <mxCell id="92t1Hm8fsz9WDFqAWncr-28" value="行业类型&#xa;年份&#xa;从业总人数&#xa;总专利数&#xa;上市企业总市值&#xa;某业务总量&#xa;某业务总用户量" style="align=left;strokeColor=none;fillColor=none;spacingLeft=4;fontSize=12;verticalAlign=top;resizable=0;rotatable=0;part=1;fontColor=#030303;" vertex="1" parent="92t1Hm8fsz9WDFqAWncr-27">
          <mxGeometry y="30" width="220" height="120" as="geometry" />
        </mxCell>
        <mxCell id="92t1Hm8fsz9WDFqAWncr-29" value="时间" style="swimlane;childLayout=stackLayout;horizontal=1;startSize=30;horizontalStack=0;rounded=1;fontSize=14;fontStyle=0;strokeWidth=2;resizeParent=0;resizeLast=1;shadow=0;dashed=0;align=center;fontColor=#FFFFFF;fillColor=#0883FF;" vertex="1" parent="1">
          <mxGeometry x="-280" y="-1050" width="220" height="150" as="geometry" />
        </mxCell>
        <mxCell id="92t1Hm8fsz9WDFqAWncr-30" value="id&#xa;日期&#xa;年份&#xa;月份&#xa;天&#xa;日&#xa;周&#xa;&#xa;" style="align=left;strokeColor=none;fillColor=none;spacingLeft=4;fontSize=12;verticalAlign=top;resizable=0;rotatable=0;part=1;fontColor=#030303;" vertex="1" parent="92t1Hm8fsz9WDFqAWncr-29">
          <mxGeometry y="30" width="220" height="120" as="geometry" />
        </mxCell>
        <mxCell id="92t1Hm8fsz9WDFqAWncr-35" value="业务统计" style="swimlane;childLayout=stackLayout;horizontal=1;startSize=30;horizontalStack=0;rounded=1;fontSize=14;fontStyle=0;strokeWidth=2;resizeParent=0;resizeLast=1;shadow=0;dashed=0;align=center;fontColor=#FFFFFF;fillColor=#0883FF;" vertex="1" parent="1">
          <mxGeometry x="-280" y="-530" width="220" height="150" as="geometry" />
        </mxCell>
        <mxCell id="92t1Hm8fsz9WDFqAWncr-36" value="业务名称&#xa;年份&#xa;业务量&#xa;用户量" style="align=left;strokeColor=none;fillColor=none;spacingLeft=4;fontSize=12;verticalAlign=top;resizable=0;rotatable=0;part=1;fontColor=#030303;" vertex="1" parent="92t1Hm8fsz9WDFqAWncr-35">
          <mxGeometry y="30" width="220" height="120" as="geometry" />
        </mxCell>
        <mxCell id="92t1Hm8fsz9WDFqAWncr-37" value="企业统计" style="swimlane;childLayout=stackLayout;horizontal=1;startSize=30;horizontalStack=0;rounded=1;fontSize=14;fontStyle=0;strokeWidth=2;resizeParent=0;resizeLast=1;shadow=0;dashed=0;align=center;fontColor=#FFFFFF;fillColor=#0883FF;" vertex="1" parent="1">
          <mxGeometry x="-280" y="-770" width="220" height="150" as="geometry" />
        </mxCell>
        <mxCell id="92t1Hm8fsz9WDFqAWncr-38" value="企业名称&#xa;年份&#xa;职员数&#xa;专利&#xa;上市企业市值&#xa;所在城市&#xa;" style="align=left;strokeColor=none;fillColor=none;spacingLeft=4;fontSize=12;verticalAlign=top;resizable=0;rotatable=0;part=1;fontColor=#030303;" vertex="1" parent="92t1Hm8fsz9WDFqAWncr-37">
          <mxGeometry y="30" width="220" height="120" as="geometry" />
        </mxCell>
        <mxCell id="92t1Hm8fsz9WDFqAWncr-40" style="edgeStyle=orthogonalEdgeStyle;rounded=0;orthogonalLoop=1;jettySize=auto;html=1;exitX=0.5;exitY=0;exitDx=0;exitDy=0;entryX=0.5;entryY=1;entryDx=0;entryDy=0;fontColor=#030303;startArrow=ERmany;startFill=0;endArrow=ERone;endFill=0;" edge="1" parent="1" source="92t1Hm8fsz9WDFqAWncr-35" target="92t1Hm8fsz9WDFqAWncr-38">
          <mxGeometry relative="1" as="geometry" />
        </mxCell>
        <mxCell id="92t1Hm8fsz9WDFqAWncr-41" style="edgeStyle=orthogonalEdgeStyle;rounded=0;orthogonalLoop=1;jettySize=auto;html=1;exitX=0;exitY=0.25;exitDx=0;exitDy=0;entryX=1;entryY=0.25;entryDx=0;entryDy=0;fontColor=#030303;startArrow=ERmany;startFill=0;endArrow=ERone;endFill=0;" edge="1" parent="1" source="92t1Hm8fsz9WDFqAWncr-38" target="92t1Hm8fsz9WDFqAWncr-28">
          <mxGeometry relative="1" as="geometry" />
        </mxCell>
        <mxCell id="92t1Hm8fsz9WDFqAWncr-47" style="edgeStyle=orthogonalEdgeStyle;curved=1;rounded=0;orthogonalLoop=1;jettySize=auto;html=1;exitX=1;exitY=0.25;exitDx=0;exitDy=0;entryX=0;entryY=0.25;entryDx=0;entryDy=0;fontColor=#030303;startArrow=ERmany;startFill=0;endArrow=ERone;endFill=0;" edge="1" parent="1" source="92t1Hm8fsz9WDFqAWncr-38" target="92t1Hm8fsz9WDFqAWncr-6">
          <mxGeometry relative="1" as="geometry" />
        </mxCell>
        <mxCell id="92t1Hm8fsz9WDFqAWncr-48" value="" style="fontSize=12;html=1;endArrow=ERmany;startArrow=ERmany;rounded=0;fontColor=#030303;entryX=0.5;entryY=1;entryDx=0;entryDy=0;exitX=0.5;exitY=0;exitDx=0;exitDy=0;" edge="1" parent="1" source="92t1Hm8fsz9WDFqAWncr-20" target="92t1Hm8fsz9WDFqAWncr-6">
          <mxGeometry width="100" height="100" relative="1" as="geometry">
            <mxPoint x="370" y="-410" as="sourcePoint" />
            <mxPoint x="470" y="-510" as="targetPoint" />
          </mxGeometry>
        </mxCell>
        <mxCell id="92t1Hm8fsz9WDFqAWncr-49" value="实行" style="edgeLabel;html=1;align=center;verticalAlign=middle;resizable=0;points=[];fontColor=#030303;" vertex="1" connectable="0" parent="92t1Hm8fsz9WDFqAWncr-48">
          <mxGeometry x="0.0933" relative="1" as="geometry">
            <mxPoint y="-1" as="offset" />
          </mxGeometry>
        </mxCell>
        <mxCell id="92t1Hm8fsz9WDFqAWncr-50" value="项目" style="swimlane;childLayout=stackLayout;horizontal=1;startSize=30;horizontalStack=0;rounded=1;fontSize=14;fontStyle=0;strokeWidth=2;resizeParent=0;resizeLast=1;shadow=0;dashed=0;align=center;fontColor=#FFFFFF;fillColor=#0883FF;" vertex="1" parent="1">
          <mxGeometry x="340" y="-770" width="220" height="150" as="geometry" />
        </mxCell>
        <mxCell id="92t1Hm8fsz9WDFqAWncr-51" value="项目名称&#xa;花费金额&#xa;实施年份" style="align=left;strokeColor=none;fillColor=none;spacingLeft=4;fontSize=12;verticalAlign=top;resizable=0;rotatable=0;part=1;fontColor=#030303;" vertex="1" parent="92t1Hm8fsz9WDFqAWncr-50">
          <mxGeometry y="30" width="220" height="120" as="geometry" />
        </mxCell>
        <mxCell id="92t1Hm8fsz9WDFqAWncr-52" value="" style="edgeStyle=entityRelationEdgeStyle;fontSize=12;html=1;endArrow=ERmany;startArrow=ERmany;rounded=0;fontColor=#030303;entryX=0;entryY=0.25;entryDx=0;entryDy=0;exitX=1;exitY=0.25;exitDx=0;exitDy=0;" edge="1" parent="1" source="92t1Hm8fsz9WDFqAWncr-6" target="92t1Hm8fsz9WDFqAWncr-51">
          <mxGeometry width="100" height="100" relative="1" as="geometry">
            <mxPoint x="330" y="-470" as="sourcePoint" />
            <mxPoint x="430" y="-570" as="targetPoint" />
          </mxGeometry>
        </mxCell>
        <mxCell id="92t1Hm8fsz9WDFqAWncr-53" value="启动" style="edgeLabel;html=1;align=center;verticalAlign=middle;resizable=0;points=[];fontColor=#030303;" vertex="1" connectable="0" parent="92t1Hm8fsz9WDFqAWncr-52">
          <mxGeometry relative="1" as="geometry">
            <mxPoint as="offset" />
          </mxGeometry>
        </mxCell>
      </root>
    </mxGraphModel>
  </diagram>
</mxfile>
